# xmcd
#
# Track frame offsets:
#	150
#	16734
#	27099
#	38240
#	50225
#	66186
#	84319
#	98481
#	109343
#	120251
#	137044
#	154524
#	166869
#
# Disc length: 2347 seconds
#
# Revision: 2
# Processed by: cddbd v1.5.2PL0 Copyright (c) Steve Scherf et al.
# Submitted via: audiograbber 1.83.01
#
DISCID=9709290d
DTITLE=Various Artist - An Empty Glass - A Collection Of .... Drinkin' Songs
DYEAR=2001
DGENRE=Country Rock
TTITLE0=Gary Stewart - An Empty Glass
TTITLE1=Heather Myles - Lovin' The Bottle
TTITLE2=Dale Watson - Hair Of The Dog
TTITLE3=Katy Moffatt - Stoned At The Jukebox
TTITLE4=Hank Thompson - Scoth And Soda
TTITLE5=Big Sandy and His Fly-Rite Boys - Tequila Calling
TTITLE6=The Hollisters - Drinkin' For Two
TTITLE7=Dale Watson - Wine Don't Lie
TTITLE8=Gary Stewart - Brand New Whiskey
TTITLE9=Marty Brown - Behind Bars
TTITLE10=Randy Weeks - Last Dwi
TTITLE11=The Sprague Brothers - Pink Champagne
TTITLE12=The Fly-Rite Boys - Booze Party
EXTD=
EXTT0=
EXTT1=
EXTT2=
EXTT3=
EXTT4=
EXTT5=
EXTT6=
EXTT7=
EXTT8=
EXTT9=
EXTT10=
EXTT11=
EXTT12=
PLAYORDER=
